<svg width="30" height="31" viewBox="0 0 30 31" fill="none" xmlns="http://www.w3.org/2000/svg">
<path d="M14.9728 0.567449C14.4283 0.567449 13.9385 1.05721 13.9933 1.60166V1.65595V5.41151C13.939 5.95593 14.3198 6.44571 14.8642 6.55466C15.4086 6.60895 15.8984 6.22816 16.0073 5.68375V5.41153V1.65598C16.0616 1.11155 15.6262 0.567536 15.0821 0.512817C15.0271 0.567487 14.9728 0.567487 14.9728 0.567487L14.9728 0.567449ZM14.9728 8.40503C11.054 8.40503 7.84292 11.5618 7.84292 15.5349C7.84292 19.5079 11.054 22.6647 14.9728 22.6647C18.8915 22.6647 22.1026 19.4536 22.1026 15.5349C22.0483 11.6161 18.8915 8.45926 14.9728 8.40503ZM14.9728 10.691C17.6398 10.691 19.8168 12.8678 19.8168 15.535C19.8168 18.2021 17.6399 20.379 14.9728 20.379V10.691ZM1.14831 14.5555C0.603883 14.5012 0.1141 14.882 0.00514868 15.4264C-0.0491412 15.9708 0.331651 16.4606 0.876066 16.5695H1.14828H4.90384C5.44826 16.6238 5.93804 16.243 6.04699 15.6986C6.10128 15.1542 5.72049 14.6644 5.17608 14.5555H4.90387H1.14831ZM25.0962 14.5555C24.5517 14.5012 24.062 14.882 23.953 15.4264C23.8987 15.9708 24.2795 16.4606 24.8239 16.5695H25.0961H28.8517C29.3961 16.6238 29.8859 16.243 29.9949 15.6986C30.0491 15.1542 29.6683 14.6644 29.1239 14.5555H28.8517H25.0962ZM14.9728 24.5156C14.4283 24.5156 13.9385 25.0054 13.9933 25.5498V25.6041V29.3597C13.939 29.9041 14.3198 30.3939 14.8642 30.5028C15.4086 30.5571 15.8984 30.1763 16.0073 29.6319V29.3597V25.6041C16.0616 25.0597 15.6262 24.5157 15.0821 24.461C15.0271 24.5156 14.9728 24.5156 14.9728 24.5156L14.9728 24.5156ZM25.5316 4.9219C25.0961 4.48643 24.3884 4.48643 23.9534 4.9219L21.2864 7.58891C20.8509 8.02438 20.8509 8.73207 21.2864 9.1671C21.7218 9.60257 22.4295 9.60257 22.8646 9.1671L25.5316 6.50008C26.0213 6.11929 26.0213 5.41164 25.5316 4.9219C25.5859 4.97619 25.5859 4.97619 25.5316 4.9219ZM5.93788 4.9219C5.50242 4.48643 4.79472 4.48643 4.35969 4.9219C3.92423 5.35736 3.92423 6.06506 4.35969 6.50008L7.02671 9.1671C7.46218 9.60257 8.16987 9.60257 8.6049 9.1671C9.04036 8.73164 9.04036 8.02394 8.6049 7.58891L5.93788 4.9219ZM22.9191 21.9031C22.4836 21.4676 21.7759 21.4676 21.3409 21.9031C20.9054 22.3386 20.9054 23.0463 21.3409 23.4813L24.0079 26.1483C24.4434 26.5838 25.1511 26.5838 25.5861 26.1483C26.0216 25.7128 26.0216 25.0051 25.5861 24.5701L22.9191 21.9031ZM8.6048 21.9031C8.16934 21.4676 7.46164 21.4676 7.02661 21.9031L4.3596 24.5701C3.92413 25.0056 3.92413 25.7133 4.3596 26.1483C4.79506 26.5838 5.50276 26.5838 5.93778 26.1483L8.6048 23.4813C9.04027 23.0462 9.04027 22.3385 8.6048 21.9031V21.9031Z" fill="white"/>
</svg>
