<svg width="35" height="36" viewBox="0 0 35 36" fill="none" xmlns="http://www.w3.org/2000/svg">
<path d="M17.4682 0.576555C16.833 0.576555 16.2616 1.14794 16.3255 1.78313V1.84647V6.22795C16.2621 6.86312 16.7064 7.43453 17.3415 7.56164C17.9767 7.62498 18.5481 7.18072 18.6752 6.54557V6.22799V1.8465C18.7386 1.21134 18.2305 0.576656 17.5958 0.512817C17.5316 0.576599 17.4683 0.576599 17.4683 0.576599L17.4682 0.576555ZM17.4682 9.7204C12.8963 9.7204 9.15007 13.4033 9.15007 18.0385C9.15007 22.6738 12.8963 26.3567 17.4682 26.3567C22.0401 26.3567 25.7863 22.6104 25.7863 18.0385C25.723 13.4667 22.0401 9.78367 17.4682 9.7204ZM17.4682 12.3873C20.5797 12.3873 23.1195 14.927 23.1195 18.0386C23.1195 21.1503 20.5798 23.69 17.4682 23.69V12.3873ZM1.33969 16.8959C0.70453 16.8326 0.133116 17.2768 0.00600679 17.912C-0.0573314 18.5471 0.386926 19.1186 1.02208 19.2457H1.33966H5.72114C6.3563 19.309 6.92772 18.8647 7.05483 18.2296C7.11817 17.5944 6.67391 17.023 6.03876 16.8959H5.72118H1.33969ZM29.2789 16.8959C28.6437 16.8326 28.0723 17.2768 27.9452 17.912C27.8818 18.5471 28.3261 19.1186 28.9612 19.2457H29.2788H33.6603C34.2955 19.309 34.8669 18.8647 34.994 18.2296C35.0573 17.5944 34.6131 17.023 33.9779 16.8959H33.6603H29.2789ZM17.4682 28.5161C16.833 28.5161 16.2616 29.0874 16.3255 29.7226V29.786V34.1675C16.2621 34.8026 16.7064 35.374 17.3415 35.5011C17.9767 35.5645 18.5481 35.1202 18.6752 34.4851V34.1675V29.786C18.7386 29.1508 18.2305 28.5162 17.5958 28.4523C17.5316 28.5161 17.4683 28.5161 17.4683 28.5161L17.4682 28.5161ZM29.7868 5.65674C29.2788 5.1487 28.4532 5.1487 27.9456 5.65674L24.8341 8.76826C24.3261 9.27631 24.3261 10.102 24.8341 10.6095C25.3421 11.1175 26.1678 11.1175 26.6753 10.6095L29.7868 7.49796C30.3582 7.0537 30.3582 6.22811 29.7868 5.65674C29.8502 5.72008 29.8502 5.72008 29.7868 5.65674ZM6.92753 5.65674C6.41949 5.1487 5.59384 5.1487 5.08631 5.65674C4.57827 6.16478 4.57827 6.99043 5.08631 7.49796L8.19783 10.6095C8.70587 11.1175 9.53151 11.1175 10.039 10.6095C10.5471 10.1014 10.5471 9.2758 10.039 8.76826L6.92753 5.65674ZM26.7389 25.4682C26.2309 24.9601 25.4052 24.9601 24.8977 25.4682C24.3897 25.9762 24.3897 26.8018 24.8977 27.3094L28.0092 30.4209C28.5173 30.9289 29.3429 30.9289 29.8505 30.4209C30.3585 29.9128 30.3585 29.0872 29.8505 28.5797L26.7389 25.4682ZM10.0389 25.4682C9.53089 24.9601 8.70525 24.9601 8.19772 25.4682L5.08619 28.5797C4.57815 29.0877 4.57815 29.9134 5.08619 30.4209C5.59424 30.9289 6.41988 30.9289 6.92741 30.4209L10.0389 27.3094C10.547 26.8018 10.547 25.9761 10.0389 25.4682V25.4682Z" fill="white"/>
</svg>
