<svg width="20" height="21" viewBox="0 0 20 21" fill="none" xmlns="http://www.w3.org/2000/svg">
<path d="M6.45377 15.9645C8.59012 15.23 10.4263 13.908 11.7111 12.1795C12.9957 10.4513 13.6658 8.40129 13.6296 6.31025C13.5933 4.21939 12.8524 2.18983 11.5086 0.5C13.8285 1.00808 15.9072 2.18975 17.4343 3.86875C18.9617 5.54775 19.8559 7.63421 19.984 9.817C20.1121 11.9998 19.467 14.1619 18.1448 15.9815C16.8226 17.8007 14.8944 19.1798 12.6474 19.9127C10.4003 20.646 7.955 20.6938 5.67587 20.0493C3.3967 19.4049 1.40604 18.1027 7.83246e-07 16.3367C2.14357 16.8081 4.39209 16.6782 6.45377 15.9641V15.9645Z" fill="#373737"/>
</svg>
