<svg width="25" height="26" viewBox="0 0 25 26" fill="none" xmlns="http://www.w3.org/2000/svg">
<path d="M8.06721 19.8307C10.7376 18.9125 13.0329 17.2601 14.6389 15.0994C16.2446 12.9391 17.0822 10.3766 17.0369 7.76281C16.9917 5.14924 16.0655 2.61229 14.3857 0.5C17.2856 1.1351 19.8841 2.61219 21.7929 4.71094C23.7021 6.80969 24.8199 9.41776 24.98 12.1462C25.1402 14.8747 24.3337 17.5774 22.681 19.8518C21.0282 22.1259 18.618 23.8498 15.8093 24.7659C13.0004 25.6825 9.94374 25.7423 7.09483 24.9367C4.24587 24.1312 1.75755 22.5034 -8.36899e-07 20.2959C2.67946 20.8851 5.49011 20.7228 8.06721 19.8301V19.8307Z" fill="#373737"/>
</svg>
