<svg width="61" height="47" viewBox="0 0 61 47" fill="none" xmlns="http://www.w3.org/2000/svg">
<path d="M34.668 0.951325C34.4452 1.05687 34.199 1.30313 34.1051 1.50248C33.7299 2.31163 21.5106 43.9769 21.5106 44.4342C21.5223 44.915 21.7451 45.302 22.1556 45.5131C22.2846 45.5834 23.082 45.8297 23.9146 46.076C25.3922 46.4981 25.4508 46.5098 25.873 46.3339C26.1661 46.2167 26.3772 46.0173 26.4945 45.7593C26.8697 44.9619 39.1007 3.27323 39.1007 2.80416C39.1007 2.124 38.7138 1.76047 37.6584 1.45558C37.201 1.31486 36.5795 1.13895 36.2863 1.04514C35.3482 0.763697 35.0785 0.740243 34.668 0.951325Z" fill="#7364D0"/>
<path d="M8.35316 15.0235C2.97057 20.4178 0.390683 23.0798 0.332049 23.2908C0.296869 23.4785 0.296869 23.7599 0.332049 23.9358C0.390683 24.1586 2.97057 26.8206 8.35316 32.2032L16.2922 40.1539H17.4531L19.4115 38.1956C21.4285 36.1668 21.5575 35.9792 21.3699 35.2873C21.2995 35.0411 19.6109 33.2703 15.6238 29.2832L9.95973 23.6192L15.6238 17.9552C19.5288 14.0502 21.3112 12.1973 21.3699 11.9511C21.5692 11.2709 21.3581 10.966 19.3646 8.98419L17.4414 7.08445H16.2922L8.35316 15.0235Z" fill="white"/>
<path d="M41.2467 8.98419C39.2532 10.966 39.0421 11.2709 39.2414 11.9511C39.3001 12.1973 41.0825 14.0502 44.9876 17.9552L50.6516 23.6192L44.9993 29.2715C41.8917 32.3908 39.3001 35.0645 39.2297 35.2404C38.9952 35.8854 39.1711 36.1551 41.1998 38.1956L43.1582 40.1539H44.3191L52.2582 32.2149C57.6408 26.8206 60.2206 24.1586 60.2793 23.9358C60.3145 23.7599 60.3145 23.4785 60.2793 23.2908C60.2206 23.0798 57.6408 20.4178 52.2582 15.0235L44.3191 7.08445H43.1699L41.2467 8.98419Z" fill="white"/>
</svg>
