<svg width="91" height="70" viewBox="0 0 91 70" fill="none" xmlns="http://www.w3.org/2000/svg">
<path d="M51.814 1.02139C51.48 1.17959 51.1108 1.54873 50.9702 1.84756C50.4077 3.06045 32.0913 65.5156 32.0913 66.2011C32.1089 66.9218 32.4429 67.5019 33.0581 67.8183C33.2515 67.9238 34.4468 68.2929 35.6948 68.662C37.9097 69.2949 37.9976 69.3124 38.6304 69.0488C39.0698 68.873 39.3862 68.5742 39.562 68.1874C40.1245 66.9921 58.4585 4.50186 58.4585 3.79873C58.4585 2.7792 57.8784 2.23428 56.2964 1.77725C55.6108 1.56631 54.6792 1.30264 54.2397 1.16201C52.8335 0.740137 52.4292 0.704981 51.814 1.02139Z" fill="#7364D0"/>
<path d="M12.3687 22.1152C4.30029 30.2011 0.433105 34.1913 0.345215 34.5078C0.29248 34.789 0.29248 35.2109 0.345215 35.4745C0.433105 35.8085 4.30029 39.7988 12.3687 47.8671L24.269 59.7851H26.0093L28.9448 56.8495C31.9683 53.8085 32.1616 53.5273 31.8804 52.4902C31.7749 52.121 29.2436 49.4667 23.2671 43.4902L14.7769 34.9999L23.2671 26.5097C29.1206 20.6562 31.7925 17.8788 31.8804 17.5097C32.1792 16.4902 31.8628 16.0331 28.8745 13.0624L25.9917 10.2148H24.269L12.3687 22.1152Z" fill="white"/>
<path d="M61.6753 13.0624C58.687 16.0331 58.3706 16.4902 58.6694 17.5097C58.7573 17.8788 61.4292 20.6562 67.2827 26.5097L75.7729 34.9999L67.3003 43.4726C62.642 48.1484 58.7573 52.1562 58.6518 52.4199C58.3003 53.3867 58.5639 53.791 61.6049 56.8495L64.5405 59.7851H66.2807L78.1811 47.8847C86.2495 39.7988 90.1167 35.8085 90.2046 35.4745C90.2573 35.2109 90.2573 34.789 90.2046 34.5078C90.1167 34.1913 86.2495 30.2011 78.1811 22.1152L66.2807 10.2148H64.5581L61.6753 13.0624Z" fill="white"/>
</svg>
